<svg xmlns="http://www.w3.org/2000/svg" width="128" height="128" viewBox="0 0 128 128">
  <!-- uygulama ikonu: pastel gökyüzünde sevimli otel cephesi, kalın kontur -->
  <defs>
    <linearGradient id="ic_sky" x1="0" y1="0" x2="0" y2="1">
      <stop offset="0%" stop-color="#8fd0f5"/>
      <stop offset="100%" stop-color="#ffe0ea"/>
    </linearGradient>
    <linearGradient id="ic_face" x1="0" y1="0" x2="0" y2="1">
      <stop offset="0%" stop-color="#fff1d6"/>
      <stop offset="100%" stop-color="#fbe6c4"/>
    </linearGradient>
  </defs>
  <rect width="128" height="128" rx="24" fill="url(#ic_sky)"/>
  <ellipse cx="26" cy="26" rx="16" ry="8" fill="#ffffff" opacity="0.9"/>
  <ellipse cx="104" cy="20" rx="13" ry="7" fill="#ffffff" opacity="0.9"/>
  <!-- cephe -->
  <rect x="22" y="34" width="84" height="82" rx="6" fill="url(#ic_face)" stroke="#8a5a3a" stroke-width="4"/>
  <!-- çatı bandı -->
  <rect x="14" y="24" width="100" height="14" rx="7" fill="#a5674b" stroke="#7a4632" stroke-width="4"/>
  <!-- pencereler: perdeli -->
  <g stroke="#8a5a3a" stroke-width="3">
    <rect x="32" y="48" width="20" height="18" rx="3" fill="#bfe8f5"/>
    <rect x="54" y="48" width="20" height="18" rx="3" fill="#bfe8f5"/>
    <rect x="76" y="48" width="20" height="18" rx="3" fill="#bfe8f5"/>
  </g>
  <g fill="#f58ea8">
    <path d="M 32 48 q 5 9 0 18 l 5 0 q -3 -9 0 -18 Z"/>
    <path d="M 52 48 q -5 9 0 18 l -5 0 q 3 -9 0 -18 Z"/>
    <path d="M 76 48 q 5 9 0 18 l 5 0 q -3 -9 0 -18 Z"/>
    <path d="M 96 48 q -5 9 0 18 l -5 0 q 3 -9 0 -18 Z"/>
  </g>
  <path d="M 54 48 q 5 9 0 18 l 5 0 q -3 -9 0 -18 Z" fill="#8fd0a8"/>
  <path d="M 74 48 q -5 9 0 18 l -5 0 q 3 -9 0 -18 Z" fill="#8fd0a8"/>
  <!-- altın kapı -->
  <rect x="52" y="82" width="24" height="34" rx="4" fill="#f6b83c" stroke="#8a5a3a" stroke-width="4"/>
  <path d="M 64 84 L 64 114" stroke="#c9862a" stroke-width="2.4"/>
  <path d="M 52 82 q 12 -10 24 0" fill="#ffd878" stroke="#8a5a3a" stroke-width="3.4"/>
  <!-- tente -->
  <path d="M 44 78 L 84 78 L 88 88 L 40 88 Z" fill="#ef6a5e" stroke="#7a4632" stroke-width="3.4" stroke-linejoin="round"/>
  <path d="M 40 88 C 40 93 48 93 48 88 M 48 88 C 48 93 56 93 56 88 M 56 88 C 56 93 64 93 64 88 M 64 88 C 64 93 72 93 72 88 M 72 88 C 72 93 80 93 80 88 M 80 88 C 80 93 88 93 88 88" fill="#ffd878" stroke="#7a4632" stroke-width="2.6"/>
  <!-- yan pencereler alt kat -->
  <rect x="30" y="92" width="14" height="12" rx="3" fill="#bfe8f5" stroke="#8a5a3a" stroke-width="3"/>
  <rect x="84" y="92" width="14" height="12" rx="3" fill="#bfe8f5" stroke="#8a5a3a" stroke-width="3"/>
  <!-- tabela yıldızı -->
  <circle cx="64" cy="31" r="9" fill="#ffd878" stroke="#7a4632" stroke-width="3.4"/>
  <path d="M 64 25.6 L 65.6 29.2 L 69.4 29.6 L 66.6 32.2 L 67.4 36 L 64 34 L 60.6 36 L 61.4 32.2 L 58.6 29.6 L 62.4 29.2 Z" fill="#c9862a"/>
</svg>
