<svg xmlns="http://www.w3.org/2000/svg" width="128" height="128" viewBox="0 0 128 128">
  <rect width="128" height="128" rx="24" fill="#14532d"/>
  <rect x="26" y="18" width="76" height="92" rx="6" fill="#1f2e27"/>
  <rect x="36" y="28" width="14" height="12" rx="2" fill="#d9b25e"/>
  <rect x="57" y="28" width="14" height="12" rx="2" fill="#d9b25e"/>
  <rect x="78" y="28" width="14" height="12" rx="2" fill="#d9b25e"/>
  <rect x="36" y="48" width="14" height="12" rx="2" fill="#d9b25e"/>
  <rect x="57" y="48" width="14" height="12" rx="2" fill="#f5ecd8"/>
  <rect x="78" y="48" width="14" height="12" rx="2" fill="#d9b25e"/>
  <rect x="36" y="68" width="14" height="12" rx="2" fill="#d9b25e"/>
  <rect x="57" y="68" width="14" height="12" rx="2" fill="#d9b25e"/>
  <rect x="78" y="68" width="14" height="12" rx="2" fill="#d9b25e"/>
  <rect x="54" y="88" width="20" height="22" rx="3" fill="#a07118"/>
  <rect x="20" y="12" width="88" height="8" rx="4" fill="#d9b25e"/>
</svg>
