<svg xmlns="http://www.w3.org/2000/svg" width="96" height="64" viewBox="0 0 96 64">
  <defs>
    <linearGradient id="cf_wall" x1="0" y1="0" x2="0" y2="1">
      <stop offset="0%" stop-color="#e8c9a0"/>
      <stop offset="100%" stop-color="#d6ac78"/>
    </linearGradient>
    <linearGradient id="cf_wood" x1="0" y1="0" x2="0" y2="1">
      <stop offset="0%" stop-color="#a8845f"/>
      <stop offset="100%" stop-color="#8a6642"/>
    </linearGradient>
    <linearGradient id="cf_machine" x1="0" y1="0" x2="0" y2="1">
      <stop offset="0%" stop-color="#6b6560"/>
      <stop offset="100%" stop-color="#403c39"/>
    </linearGradient>
  </defs>
  <rect x="0" y="0" width="96" height="34" fill="url(#cf_wall)"/>
  <rect x="4" y="34" width="88" height="10" rx="3" fill="url(#cf_wood)" stroke="#55402e" stroke-width="2.5"/>
  <path d="M 6 37 h 84" stroke="#c9a876" stroke-width="1.2" opacity="0.6"/>
  <rect x="8" y="44" width="80" height="16" fill="url(#cf_wood)" stroke="#55402e" stroke-width="2.5"/>
  <path d="M 10 47 h 76" stroke="#c9a876" stroke-width="1.4" opacity="0.5"/>
  <ellipse cx="82" cy="34" rx="9" ry="1.6" fill="#2e2b28" opacity="0.15"/>
  <rect x="14" y="14" width="22" height="20" rx="3" fill="url(#cf_machine)" stroke="#2e2b28" stroke-width="2.5"/>
  <rect x="18" y="18" width="14" height="6" rx="2" fill="#d9b25e"/>
  <path d="M 19 19 h 12" stroke="#f0d488" stroke-width="1" opacity="0.7"/>
  <rect x="22" y="28" width="6" height="6" fill="#2e2b28"/>
  <circle cx="17" cy="31" r="1.3" fill="#e05a4e"/>
  <path d="M 52 26 a 8 8 0 0 0 16 0 z" fill="#fdfaf2" stroke="#55402e" stroke-width="2.5"/>
  <path d="M 55 26 a 5 5 0 0 0 10 0 z" fill="#e8d9bc" opacity="0.7"/>
  <path d="M 68 27 q 6 1 0 6" fill="none" stroke="#55402e" stroke-width="2.5"/>
  <path d="M 55 16 q 2 -4 0 -8 M 61 16 q 2 -4 0 -8" fill="none" stroke="#c3ccc9" stroke-width="2.5" stroke-linecap="round" opacity="0.85"/>
  <circle cx="82" cy="26" r="7" fill="#eda078" stroke="#8a4527" stroke-width="2.5"/>
  <path d="M 79 22 a 5 5 0 0 1 5 -2" fill="none" stroke="#f7c6a8" stroke-width="1.6" opacity="0.8"/>
</svg>
