<svg xmlns="http://www.w3.org/2000/svg" width="96" height="64" viewBox="0 0 96 64">
  <!-- spor salonu: ayna, halter sehpası, dambıl, koşu bandı, mat -->
  <defs>
    <linearGradient id="gy_wall" x1="0" y1="0" x2="0" y2="1">
      <stop offset="0%" stop-color="#eef5f6"/>
      <stop offset="100%" stop-color="#dcebee"/>
    </linearGradient>
    <linearGradient id="gy_mirror" x1="0" y1="0" x2="0" y2="1">
      <stop offset="0%" stop-color="#e2f0f4"/>
      <stop offset="100%" stop-color="#b9d7de"/>
    </linearGradient>
    <linearGradient id="gy_tread" x1="0" y1="0" x2="0" y2="1">
      <stop offset="0%" stop-color="#75838a"/>
      <stop offset="100%" stop-color="#4c565b"/>
    </linearGradient>
  </defs>
  <rect x="0" y="0" width="96" height="56" fill="url(#gy_wall)"/>
  <rect x="0" y="54" width="96" height="10" fill="#9db3b8"/>
  <path d="M 0 55 h 96" stroke="#c3d5d8" stroke-width="1" opacity="0.6"/>
  <ellipse cx="23" cy="32" rx="18" ry="2" fill="#2e3a3d" opacity="0.12"/>
  <rect x="6" y="4" width="34" height="26" rx="2" fill="url(#gy_mirror)" stroke="#8aa8b0" stroke-width="2"/>
  <path d="M 12 8 L 22 26 M 18 6 L 30 28" stroke="#ffffff" stroke-width="2.5" opacity="0.8"/>
  <rect x="8" y="42" width="30" height="4" rx="1.5" fill="#8a9a9f" stroke="#55666b" stroke-width="1.6"/>
  <path d="M 9 42.5 h 28" stroke="#c4d2d5" stroke-width="1" opacity="0.6"/>
  <path d="M 11 46 l -2 10 M 35 46 l 2 10" stroke="#55666b" stroke-width="2.5" stroke-linecap="round"/>
  <path d="M 12 38 h 22" stroke="#5a5a63" stroke-width="2.5" stroke-linecap="round"/>
  <circle cx="13" cy="38" r="4.5" fill="#e8695c" stroke="#a83e35" stroke-width="1.6"/>
  <path d="M 11 36 a 2.5 2.5 0 0 1 2.5 -1.5" fill="none" stroke="#f5a999" stroke-width="1" opacity="0.8"/>
  <circle cx="33" cy="38" r="4.5" fill="#e8695c" stroke="#a83e35" stroke-width="1.6"/>
  <path d="M 46 36 h 16" stroke="#5a5a63" stroke-width="2.2" stroke-linecap="round"/>
  <circle cx="47" cy="36" r="3.4" fill="#63c0e3" stroke="#2a7fa3" stroke-width="1.4"/>
  <circle cx="61" cy="36" r="3.4" fill="#63c0e3" stroke="#2a7fa3" stroke-width="1.4"/>
  <ellipse cx="78" cy="51" rx="15" ry="2" fill="#2e3a3d" opacity="0.15"/>
  <path d="M 66 24 L 90 24 L 92 50 L 64 50 Z" fill="url(#gy_tread)" stroke="#3d474c" stroke-width="2"/>
  <path d="M 68 30 h 21 M 67 36 h 23 M 66.5 42 h 24" stroke="#9db0b6" stroke-width="1.6"/>
  <path d="M 88 24 L 88 10 L 82 8" fill="none" stroke="#3d474c" stroke-width="2.5" stroke-linecap="round"/>
  <rect x="76" y="6" width="8" height="4" rx="1.5" fill="#e8695c" stroke="#a83e35" stroke-width="1.2"/>
  <ellipse cx="53" cy="53" rx="10" ry="1.6" fill="#2e3a3d" opacity="0.12"/>
  <rect x="44" y="48" width="18" height="6" rx="2.5" fill="#48ac5b" stroke="#1f6b2d" stroke-width="1.6"/>
  <path d="M 45 49.5 h 16" stroke="#7bd18a" stroke-width="1" opacity="0.7"/>
  <rect x="52" y="14" width="5" height="10" rx="2" fill="#63c0e3" stroke="#2a7fa3" stroke-width="1.4"/>
  <rect x="53.2" y="11.5" width="2.6" height="3" fill="#2a7fa3"/>
</svg>
