<svg xmlns="http://www.w3.org/2000/svg" width="96" height="64" viewBox="0 0 96 64">
  <!-- spor salonu: ayna, halter sehpası, dambıl, koşu bandı, mat -->
  <rect x="0" y="0" width="96" height="56" fill="#e3eef0"/>
  <rect x="0" y="54" width="96" height="10" fill="#9db3b8"/>
  <rect x="6" y="4" width="34" height="26" rx="2" fill="#cfe4ea" stroke="#8aa8b0" stroke-width="2"/>
  <path d="M 12 8 L 22 26 M 18 6 L 30 28" stroke="#ffffff" stroke-width="2.5" opacity="0.8"/>
  <rect x="8" y="42" width="30" height="4" rx="1.5" fill="#7a8a8f" stroke="#55666b" stroke-width="1.6"/>
  <path d="M 11 46 l -2 10 M 35 46 l 2 10" stroke="#55666b" stroke-width="2.5" stroke-linecap="round"/>
  <path d="M 12 38 h 22" stroke="#4a4a52" stroke-width="2.5" stroke-linecap="round"/>
  <circle cx="13" cy="38" r="4.5" fill="#e05a4e" stroke="#a83e35" stroke-width="1.6"/>
  <circle cx="33" cy="38" r="4.5" fill="#e05a4e" stroke="#a83e35" stroke-width="1.6"/>
  <path d="M 46 36 h 16" stroke="#4a4a52" stroke-width="2.2" stroke-linecap="round"/>
  <circle cx="47" cy="36" r="3.4" fill="#4fb3d9" stroke="#2a7fa3" stroke-width="1.4"/>
  <circle cx="61" cy="36" r="3.4" fill="#4fb3d9" stroke="#2a7fa3" stroke-width="1.4"/>
  <path d="M 66 24 L 90 24 L 92 50 L 64 50 Z" fill="#5d6a70" stroke="#3d474c" stroke-width="2"/>
  <path d="M 68 30 h 21 M 67 36 h 23 M 66.5 42 h 24" stroke="#8ea0a7" stroke-width="1.6"/>
  <path d="M 88 24 L 88 10 L 82 8" fill="none" stroke="#3d474c" stroke-width="2.5" stroke-linecap="round"/>
  <rect x="76" y="6" width="8" height="4" rx="1.5" fill="#e05a4e" stroke="#a83e35" stroke-width="1.2"/>
  <rect x="44" y="48" width="18" height="6" rx="2.5" fill="#3d9e4f" stroke="#1f6b2d" stroke-width="1.6"/>
  <rect x="52" y="14" width="5" height="10" rx="2" fill="#4fb3d9" stroke="#2a7fa3" stroke-width="1.4"/>
  <rect x="53.2" y="11.5" width="2.6" height="3" fill="#2a7fa3"/>
</svg>
