<svg xmlns="http://www.w3.org/2000/svg" width="96" height="64" viewBox="0 0 96 64">
  <!-- havuz: mavi fayans duvar, su, cankurtaran kulesi, can simidi, deniz topu -->
  <defs>
    <linearGradient id="pl_wall" x1="0" y1="0" x2="0" y2="1">
      <stop offset="0%" stop-color="#eaf8fb"/>
      <stop offset="100%" stop-color="#d5f0f6"/>
    </linearGradient>
    <linearGradient id="pl_water" x1="0" y1="0" x2="0" y2="1">
      <stop offset="0%" stop-color="#6fcae8"/>
      <stop offset="100%" stop-color="#3a9fc4"/>
    </linearGradient>
    <linearGradient id="pl_tower" x1="0" y1="0" x2="0" y2="1">
      <stop offset="0%" stop-color="#f0a05e"/>
      <stop offset="100%" stop-color="#c9622a"/>
    </linearGradient>
  </defs>
  <rect x="0" y="0" width="96" height="40" fill="url(#pl_wall)"/>
  <g fill="#7fc4de" opacity="0.85">
    <rect x="4" y="4" width="9" height="9" rx="1"/><rect x="24" y="4" width="9" height="9" rx="1"/><rect x="44" y="4" width="9" height="9" rx="1"/><rect x="64" y="4" width="9" height="9" rx="1"/><rect x="84" y="4" width="9" height="9" rx="1"/>
    <rect x="14" y="15" width="9" height="9" rx="1"/><rect x="34" y="15" width="9" height="9" rx="1"/><rect x="54" y="15" width="9" height="9" rx="1"/><rect x="74" y="15" width="9" height="9" rx="1"/>
  </g>
  <rect x="0" y="38" width="96" height="6" fill="#fdf6e3" stroke="#c9c2b4" stroke-width="1.6"/>
  <path d="M 0 44 L 96 44 L 96 64 L 0 64 Z" fill="url(#pl_water)"/>
  <path d="M 4 50 q 8 -4 16 0 t 16 0 t 16 0 t 16 0 t 16 0" fill="none" stroke="#d3f3ff" stroke-width="2.5" stroke-linecap="round" opacity="0.9"/>
  <path d="M 12 58 q 8 -4 16 0 t 16 0 t 16 0 t 16 0" fill="none" stroke="#a5e2f5" stroke-width="2" stroke-linecap="round"/>
  <ellipse cx="12" cy="47" rx="10" ry="2.5" fill="#ffffff" opacity="0.3"/>
  <path d="M 8 40 v 16 M 16 40 v 16 M 8 46 h 8 M 8 52 h 8" fill="none" stroke="#f4f4f8" stroke-width="2.5" stroke-linecap="round"/>
  <path d="M 70 18 L 74 44 M 90 18 L 86 44" stroke="#c9622a" stroke-width="3" stroke-linecap="round"/>
  <path d="M 71 30 h 18" stroke="#c9622a" stroke-width="2.5"/>
  <ellipse cx="80" cy="20" rx="10" ry="1.6" fill="#7a3a12" opacity="0.2"/>
  <rect x="70" y="12" width="20" height="8" rx="2" fill="url(#pl_tower)" stroke="#a84f18" stroke-width="2"/>
  <path d="M 72 14 h 16" stroke="#fbd0a0" stroke-width="1.2" opacity="0.7"/>
  <circle cx="30" cy="34" r="7" fill="#ffffff" stroke="#e05a4e" stroke-width="3.5"/>
  <circle cx="30" cy="34" r="2.6" fill="#dff2f7"/>
  <path d="M 26 29 a 6 6 0 0 1 5 -2.5" fill="none" stroke="#ffe8e4" stroke-width="1.6" opacity="0.8"/>
  <circle cx="52" cy="56" r="6.5" fill="#ffffff" stroke="#3a2a1c" stroke-width="1.6"/>
  <path d="M 52 49.5 a 6.5 6.5 0 0 1 0 13 c 2 -4 2 -9 0 -13 Z" fill="#e05a4e"/>
  <path d="M 52 49.5 a 6.5 6.5 0 0 0 0 13 c -2 -4 -2 -9 0 -13 Z" fill="#48ac5b"/>
  <path d="M 49 52 a 4 4 0 0 1 3 -2" fill="none" stroke="#ffffff" stroke-width="1.2" opacity="0.5"/>
</svg>
