<svg xmlns="http://www.w3.org/2000/svg" width="96" height="64" viewBox="0 0 96 64">
  <defs>
    <linearGradient id="rs_wall" x1="0" y1="0" x2="0" y2="1">
      <stop offset="0%" stop-color="#f5e9d6"/>
      <stop offset="100%" stop-color="#e9d3ac"/>
    </linearGradient>
    <linearGradient id="rs_cloth" x1="0" y1="0" x2="0" y2="1">
      <stop offset="0%" stop-color="#ffffff"/>
      <stop offset="100%" stop-color="#ece3cf"/>
    </linearGradient>
    <linearGradient id="rs_banner" x1="0" y1="0" x2="0" y2="1">
      <stop offset="0%" stop-color="#d8594e"/>
      <stop offset="100%" stop-color="#a83e35"/>
    </linearGradient>
  </defs>
  <rect x="0" y="0" width="96" height="64" fill="url(#rs_wall)"/>
  <ellipse cx="48" cy="60" rx="40" ry="3" fill="#6e5230" opacity="0.15"/>
  <rect x="10" y="36" width="76" height="8" rx="3" fill="url(#rs_cloth)" stroke="#55402e" stroke-width="2.5"/>
  <path d="M 12 39 h 72" stroke="#d9c9a8" stroke-width="1.2" opacity="0.7"/>
  <rect x="16" y="44" width="8" height="16" fill="#a8845f" stroke="#55402e" stroke-width="2.5"/>
  <rect x="72" y="44" width="8" height="16" fill="#a8845f" stroke="#55402e" stroke-width="2.5"/>
  <path d="M 30 36 a 10 5 0 0 0 20 0 z" fill="#d8e0dc" stroke="#55402e" stroke-width="2.5"/>
  <circle cx="40" cy="28" r="6" fill="#ee945a" stroke="#8a4527" stroke-width="2.5"/>
  <path d="M 37 24 a 4 4 0 0 1 4 -2" fill="none" stroke="#f7c6a8" stroke-width="1.4" opacity="0.8"/>
  <path d="M 60 22 v 14 M 57 22 v 5 M 63 22 v 5" fill="none" stroke="#c3ccc9" stroke-width="2.5" stroke-linecap="round"/>
  <path d="M 70 22 v 14 M 70 22 a 4 6 0 0 1 4 6 l -4 1" fill="none" stroke="#c3ccc9" stroke-width="2.5" stroke-linecap="round"/>
  <rect x="20" y="8" width="56" height="10" rx="4" fill="url(#rs_banner)" stroke="#6e2620" stroke-width="2.5"/>
  <path d="M 22 10 h 52" stroke="#e88a80" stroke-width="1.2" opacity="0.6"/>
  <circle cx="28" cy="13" r="1.8" fill="#f0c75e"/>
  <circle cx="48" cy="13" r="1.8" fill="#f0c75e"/>
  <circle cx="68" cy="13" r="1.8" fill="#f0c75e"/>
</svg>
