<svg xmlns="http://www.w3.org/2000/svg" width="96" height="64" viewBox="0 0 96 64">
  <rect x="10" y="36" width="76" height="8" rx="3" fill="#fdfaf2" stroke="#55402e" stroke-width="2.5"/>
  <rect x="16" y="44" width="8" height="16" fill="#8a6642" stroke="#55402e" stroke-width="2.5"/>
  <rect x="72" y="44" width="8" height="16" fill="#8a6642" stroke="#55402e" stroke-width="2.5"/>
  <path d="M 30 36 a 10 5 0 0 0 20 0 z" fill="#c2ccc8" stroke="#55402e" stroke-width="2.5"/>
  <circle cx="40" cy="28" r="6" fill="#e8843c" stroke="#8a4527" stroke-width="2.5"/>
  <path d="M 60 22 v 14 M 57 22 v 5 M 63 22 v 5" fill="none" stroke="#9fa8a4" stroke-width="2.5" stroke-linecap="round"/>
  <path d="M 70 22 v 14 M 70 22 a 4 6 0 0 1 4 6 l -4 1" fill="none" stroke="#9fa8a4" stroke-width="2.5" stroke-linecap="round"/>
  <rect x="20" y="8" width="56" height="10" rx="4" fill="#a83e35" stroke="#6e2620" stroke-width="2.5"/>
  <circle cx="28" cy="13" r="1.8" fill="#f0c75e"/>
  <circle cx="48" cy="13" r="1.8" fill="#f0c75e"/>
  <circle cx="68" cy="13" r="1.8" fill="#f0c75e"/>
</svg>
