<svg xmlns="http://www.w3.org/2000/svg" width="96" height="64" viewBox="0 0 96 64">
  <defs>
    <linearGradient id="rg_planter" x1="0" y1="0" x2="0" y2="1">
      <stop offset="0%" stop-color="#c86840"/>
      <stop offset="100%" stop-color="#9a4526"/>
    </linearGradient>
    <linearGradient id="rg_floor" x1="0" y1="0" x2="0" y2="1">
      <stop offset="0%" stop-color="#c9a06f"/>
      <stop offset="100%" stop-color="#a8845f"/>
    </linearGradient>
  </defs>
  <ellipse cx="48" cy="52" rx="42" ry="3" fill="#2f7a56" opacity="0.12"/>
  <rect x="6" y="50" width="84" height="10" rx="3" fill="url(#rg_floor)" stroke="#55402e" stroke-width="2.5"/>
  <path d="M 8 53 h 80" stroke="#e0c295" stroke-width="1.2" opacity="0.6"/>
  <rect x="14" y="40" width="20" height="10" rx="2" fill="url(#rg_planter)" stroke="#6e2620" stroke-width="2.5"/>
  <path d="M 24 40 v -14 M 24 26 c -8 2 -10 -8 -2 -8 c 0 -6 10 -6 10 0 c 8 0 6 10 -2 8" fill="#58b88a" stroke="#2f7a56" stroke-width="2.5" stroke-linejoin="round"/>
  <path d="M 20 20 a 2.5 2.5 0 0 1 3 -2" fill="none" stroke="#8fdcb5" stroke-width="1.4" opacity="0.8"/>
  <rect x="62" y="40" width="20" height="10" rx="2" fill="url(#rg_planter)" stroke="#6e2620" stroke-width="2.5"/>
  <path d="M 72 40 v -10 M 72 32 q -6 -2 -6 -8 q 6 0 6 8 M 72 32 q 6 -2 6 -8 q -6 0 -6 8" fill="#58b88a" stroke="#2f7a56" stroke-width="2.2" stroke-linejoin="round"/>
  <path d="M 40 50 v -18 M 34 36 h 12 M 36 32 h 8" fill="none" stroke="#8a6642" stroke-width="2.5" stroke-linecap="round"/>
  <path d="M 34 28 a 14 10 0 0 1 12 0 a 6 6 0 0 1 -12 0" fill="#f0c052" stroke="#a07118" stroke-width="2"/>
  <circle cx="86" cy="10" r="6" fill="#ffe08a" stroke="#a07118" stroke-width="2"/>
  <path d="M 83 7 a 4 4 0 0 1 4 -2.5" fill="none" stroke="#fff3cf" stroke-width="1.4" opacity="0.9"/>
  <path d="M 52 44 q 4 -6 10 -4" fill="none" stroke="#2f7a56" stroke-width="2.5" stroke-linecap="round"/>
</svg>
