<svg xmlns="http://www.w3.org/2000/svg" width="64" height="64" viewBox="0 0 64 64">
  <defs>
    <linearGradient id="bc_canopy" x1="0" y1="0" x2="0" y2="1">
      <stop offset="0%" stop-color="#c9606b"/>
      <stop offset="100%" stop-color="#a23f4c"/>
    </linearGradient>
    <linearGradient id="bc_frame" x1="0" y1="0" x2="0" y2="1">
      <stop offset="0%" stop-color="#c19a6f"/>
      <stop offset="100%" stop-color="#8a6642"/>
    </linearGradient>
  </defs>
  <ellipse cx="32" cy="59.5" rx="26" ry="2.2" fill="#3a2a1c" opacity="0.15"/>
  <rect x="6" y="4" width="52" height="8" rx="4" fill="url(#bc_canopy)" stroke="#6e2f36" stroke-width="2.5"/>
  <rect x="6" y="10" width="5" height="48" fill="url(#bc_frame)" stroke="#55402e" stroke-width="2"/>
  <rect x="53" y="10" width="5" height="48" fill="url(#bc_frame)" stroke="#55402e" stroke-width="2"/>
  <path d="M 11 12 C 16 26 14 34 12 40" fill="none" stroke="#bb5560" stroke-width="5" stroke-linecap="round"/>
  <path d="M 53 12 C 48 26 50 34 52 40" fill="none" stroke="#bb5560" stroke-width="5" stroke-linecap="round"/>
  <rect x="10" y="40" width="44" height="12" rx="4" fill="#f0ead9" stroke="#55402e" stroke-width="2.5"/>
  <rect x="13" y="32" width="15" height="11" rx="4" fill="#ffffff" stroke="#55402e" stroke-width="2"/>
  <path d="M 28 38 L 54 38 L 54 52 L 28 52 Z" fill="#e0655a" stroke="#55402e" stroke-width="2.5" stroke-linejoin="round"/>
</svg>
