<svg xmlns="http://www.w3.org/2000/svg" width="64" height="64" viewBox="0 0 64 64">
  <rect x="18" y="52" width="28" height="8" rx="2" fill="#8a6642" stroke="#6e4f31" stroke-width="2"/>
  <rect x="22" y="46" width="20" height="6" rx="1" fill="#a07118"/>
  <path d="M 32 12 C 26 12 24 18 26 24 C 22 28 22 36 26 40 L 26 46 L 38 46 L 38 40 C 42 36 42 28 38 24 C 40 18 38 12 32 12 Z" fill="#f0c75e" stroke="#a07118" stroke-width="2.5" stroke-linejoin="round"/>
  <circle cx="32" cy="16" r="6" fill="#f8dc8c" stroke="#a07118" stroke-width="2"/>
  <path d="M 27 30 C 29 32 35 32 37 30" fill="none" stroke="#a07118" stroke-width="1.5" stroke-linecap="round"/>
  <circle cx="20" cy="10" r="2" fill="#fff3cf"/>
  <circle cx="45" cy="20" r="1.6" fill="#fff3cf"/>
</svg>
