<svg xmlns="http://www.w3.org/2000/svg" width="64" height="64" viewBox="0 0 64 64">
  <defs>
    <linearGradient id="sg_gold" x1="0" y1="0" x2="1" y2="1">
      <stop offset="0%" stop-color="#ffe89a"/>
      <stop offset="100%" stop-color="#d9a72f"/>
    </linearGradient>
  </defs>
  <ellipse cx="32" cy="61" rx="16" ry="2" fill="#3a2a1c" opacity="0.18"/>
  <rect x="18" y="52" width="28" height="8" rx="2" fill="#8a6642" stroke="#6e4f31" stroke-width="2"/>
  <rect x="22" y="46" width="20" height="6" rx="1" fill="#c9a44c"/>
  <path d="M 32 12 C 26 12 24 18 26 24 C 22 28 22 36 26 40 L 26 46 L 38 46 L 38 40 C 42 36 42 28 38 24 C 40 18 38 12 32 12 Z" fill="url(#sg_gold)" stroke="#a07118" stroke-width="2.5" stroke-linejoin="round"/>
  <circle cx="32" cy="16" r="6" fill="#fff0c0" stroke="#a07118" stroke-width="2"/>
  <path d="M 27 30 C 29 32 35 32 37 30" fill="none" stroke="#a07118" stroke-width="1.5" stroke-linecap="round"/>
  <path d="M 27 20 a 5 5 0 0 1 4 -3" fill="none" stroke="#fff8e0" stroke-width="1.4" opacity="0.8"/>
  <circle cx="20" cy="10" r="2" fill="#fff8e0"/>
  <circle cx="45" cy="20" r="1.6" fill="#fff8e0"/>
</svg>
