<svg xmlns="http://www.w3.org/2000/svg" width="96" height="96" viewBox="0 0 96 96">
  <!-- Kilitli oda: gri kutu yerine kapalı bordo perdeler + altın korniş -->
  <defs>
    <linearGradient id="cc_l" x1="0" y1="0" x2="1" y2="0">
      <stop offset="0%" stop-color="#a8463c"/>
      <stop offset="100%" stop-color="#7e2f27"/>
    </linearGradient>
    <linearGradient id="cc_r" x1="1" y1="0" x2="0" y2="0">
      <stop offset="0%" stop-color="#a8463c"/>
      <stop offset="100%" stop-color="#7e2f27"/>
    </linearGradient>
    <linearGradient id="cc_gold" x1="0" y1="0" x2="0" y2="1">
      <stop offset="0%" stop-color="#e8c46a"/>
      <stop offset="100%" stop-color="#c9a44c"/>
    </linearGradient>
  </defs>
  <rect width="96" height="96" fill="#3c332a"/>
  <!-- kapalı kanatlar -->
  <path d="M 2 10 C 4 34 6 60 3 92 L 47 92 C 45 62 45 34 47 10 Z" fill="url(#cc_l)" stroke="#5e211b" stroke-width="2" stroke-linejoin="round"/>
  <path d="M 94 10 C 92 34 90 60 93 92 L 49 92 C 51 62 51 34 49 10 Z" fill="url(#cc_r)" stroke="#5e211b" stroke-width="2" stroke-linejoin="round"/>
  <path d="M 12 14 C 13 38 13 62 11 86 M 24 14 C 25 40 25 64 23 86 M 36 14 C 37 40 37 66 36 86"
        fill="none" stroke="#8f382f" stroke-width="2"/>
  <path d="M 84 14 C 83 38 83 62 85 86 M 72 14 C 71 40 71 64 73 86 M 60 14 C 59 40 59 66 60 86"
        fill="none" stroke="#8f382f" stroke-width="2"/>
  <path d="M 47.5 12 C 48 40 48 66 48 90" stroke="#2a1512" stroke-width="2.4" fill="none"/>
  <!-- altın korniş -->
  <rect x="0" y="2" width="96" height="9" rx="4" fill="url(#cc_gold)" stroke="#8a6f28" stroke-width="2"/>
  <circle cx="10" cy="6.5" r="1.6" fill="#fdf0c8"/>
  <circle cx="86" cy="6.5" r="1.6" fill="#fdf0c8"/>
</svg>
