<svg xmlns="http://www.w3.org/2000/svg" width="32" height="32" viewBox="0 0 32 32">
  <rect x="5" y="14" width="22" height="14" rx="2" fill="#fdf6e3" stroke="#8a6642" stroke-width="2"/>
  <path d="M 4 8 L 28 8 L 30 14 L 2 14 Z" fill="#a83e35" stroke="#6e4f31" stroke-width="2" stroke-linejoin="round"/>
  <path d="M 2 14 C 2 17 5 17 5 14 M 9 14 C 9 17 12 17 12 14 M 16 14 C 16 17 19 17 19 14 M 23 14 C 23 17 26 17 26 14 M 30 14 C 30 17 27 17 27 14" fill="#f0c75e" stroke="#6e4f31" stroke-width="1.5"/>
  <rect x="9" y="19" width="6" height="9" fill="#8a6642" stroke="#6e4f31" stroke-width="1.5"/>
  <rect x="18" y="19" width="6" height="5" rx="1" fill="#6db9e8" stroke="#6e4f31" stroke-width="1.5"/>
</svg>
