<svg xmlns="http://www.w3.org/2000/svg" width="32" height="32" viewBox="0 0 32 32">
  <!-- sevimli dükkan: mercan tente, krem cephe, kalın kahve kontur -->
  <rect x="4.5" y="13.5" width="23" height="14.5" rx="2.5" fill="#fdf6e3" stroke="#55402e" stroke-width="2.4"/>
  <path d="M 4 7.5 L 28 7.5 L 30 13.5 L 2 13.5 Z" fill="#ef6a5e" stroke="#55402e" stroke-width="2.4" stroke-linejoin="round"/>
  <path d="M 2 13.5 C 2 16.6 6.7 16.6 6.7 13.5 M 6.7 13.5 C 6.7 16.6 11.4 16.6 11.4 13.5 M 11.4 13.5 C 11.4 16.6 16 16.6 16 13.5 M 16 13.5 C 16 16.6 20.6 16.6 20.6 13.5 M 20.6 13.5 C 20.6 16.6 25.3 16.6 25.3 13.5 M 25.3 13.5 C 25.3 16.6 30 16.6 30 13.5" fill="#ffd878" stroke="#55402e" stroke-width="1.8"/>
  <rect x="8" y="19" width="6" height="9" rx="1.5" fill="#a06a3c" stroke="#55402e" stroke-width="1.8"/>
  <rect x="18" y="19" width="6.5" height="5.5" rx="1.5" fill="#9cd8f0" stroke="#55402e" stroke-width="1.8"/>
</svg>
