<svg xmlns="http://www.w3.org/2000/svg" width="32" height="32" viewBox="0 0 32 32">
  <path d="M 14 3 L 18 3 L 19 7 L 22.5 8.5 L 26 6.5 L 28.8 9.3 L 26.8 12.8 L 28.3 16.3 L 32 17.3 L 32 21.3 L 28.3 22.3 L 26.8 25.8 L 28.8 29.3 L 26 32 L 22.5 30 L 19 31.5 L 18 35 L 14 35 L 13 31.5 L 9.5 30 L 6 32 L 3.2 29.3 L 5.2 25.8 L 3.7 22.3 L 0 21.3 L 0 17.3 L 3.7 16.3 L 5.2 12.8 L 3.2 9.3 L 6 6.5 L 9.5 8.5 L 13 7 Z" transform="translate(0,-3.3)" fill="#c8b28a" stroke="#6e4f31" stroke-width="2" stroke-linejoin="round"/>
  <circle cx="16" cy="16" r="5.5" fill="#fdf6e3" stroke="#6e4f31" stroke-width="2"/>
</svg>
