<svg xmlns="http://www.w3.org/2000/svg" width="480" height="64" viewBox="0 0 480 64">
  <!-- lobi sahnesi: mermer duvar, resepsiyon bankosu, yeşil koltuklar,
       balıklı fanus, altın asansör, çiçekler (Hotel City resepsiyonu) -->
  <defs>
    <linearGradient id="lb_wall" x1="0" y1="0" x2="0" y2="1">
      <stop offset="0%" stop-color="#f8efe1"/>
      <stop offset="100%" stop-color="#ecdcc4"/>
    </linearGradient>
    <linearGradient id="lb_floor" x1="0" y1="0" x2="0" y2="1">
      <stop offset="0%" stop-color="#d3ab7c"/>
      <stop offset="100%" stop-color="#a87f52"/>
    </linearGradient>
    <linearGradient id="lb_wood" x1="0" y1="0" x2="0" y2="1">
      <stop offset="0%" stop-color="#a07850"/>
      <stop offset="100%" stop-color="#7a5a38"/>
    </linearGradient>
    <linearGradient id="lb_gold" x1="0" y1="0" x2="0" y2="1">
      <stop offset="0%" stop-color="#f0d488"/>
      <stop offset="100%" stop-color="#c9a44c"/>
    </linearGradient>
    <linearGradient id="lb_marble_col" x1="0" y1="0" x2="1" y2="0">
      <stop offset="0%" stop-color="#ffffff"/>
      <stop offset="55%" stop-color="#fdf8ee"/>
      <stop offset="100%" stop-color="#e7d9bd"/>
    </linearGradient>
  </defs>
  <rect x="0" y="0" width="480" height="58" fill="url(#lb_wall)"/>
  <path d="M 0 8 q 40 6 80 0 t 80 0 t 80 0 t 80 0 t 80 0 t 80 0" fill="none" stroke="#e0cdb6" stroke-width="3" opacity="0.7"/>
  <path d="M 0 26 q 50 7 100 0 t 100 0 t 100 0 t 100 0 t 100 0" fill="none" stroke="#e0cdb6" stroke-width="3" opacity="0.6"/>
  <path d="M 0 44 q 45 6 90 0 t 90 0 t 90 0 t 90 0 t 90 0" fill="none" stroke="#e0cdb6" stroke-width="2.5" opacity="0.5"/>
  <rect x="0" y="56" width="480" height="8" fill="url(#lb_floor)"/>
  <rect x="0" y="55" width="480" height="2" fill="#8a6642"/>
  <path d="M 0 59 q 60 -2 120 0 t 120 0 t 120 0 t 120 0" fill="none" stroke="#f0d8ae" stroke-width="1.4" opacity="0.6"/>
  <!-- sütunlar -->
  <g>
    <rect x="6" y="2" width="13" height="56" fill="url(#lb_marble_col)" stroke="#cbb897" stroke-width="1.6"/>
    <rect x="3" y="0" width="19" height="5" rx="1.5" fill="#e7d9bd" stroke="#cbb897" stroke-width="1.4"/>
    <rect x="3" y="54" width="19" height="5" rx="1.5" fill="#e7d9bd" stroke="#cbb897" stroke-width="1.4"/>
    <path d="M 10.5 6 v 48 M 14.5 6 v 48" stroke="#e7d9bd" stroke-width="1.4"/>
  </g>
  <g>
    <rect x="234" y="2" width="13" height="56" fill="url(#lb_marble_col)" stroke="#cbb897" stroke-width="1.6"/>
    <rect x="231" y="0" width="19" height="5" rx="1.5" fill="#e7d9bd" stroke="#cbb897" stroke-width="1.4"/>
    <rect x="231" y="54" width="19" height="5" rx="1.5" fill="#e7d9bd" stroke="#cbb897" stroke-width="1.4"/>
    <path d="M 238.5 6 v 48 M 242.5 6 v 48" stroke="#e7d9bd" stroke-width="1.4"/>
  </g>
  <g>
    <rect x="461" y="2" width="13" height="56" fill="url(#lb_marble_col)" stroke="#cbb897" stroke-width="1.6"/>
    <rect x="458" y="0" width="19" height="5" rx="1.5" fill="#e7d9bd" stroke="#cbb897" stroke-width="1.4"/>
    <rect x="458" y="54" width="19" height="5" rx="1.5" fill="#e7d9bd" stroke="#cbb897" stroke-width="1.4"/>
    <path d="M 465.5 6 v 48 M 469.5 6 v 48" stroke="#e7d9bd" stroke-width="1.4"/>
  </g>
  <!-- duvar saati -->
  <ellipse cx="60" cy="25.5" rx="9" ry="1.8" fill="#241608" opacity="0.12"/>
  <circle cx="60" cy="15" r="9" fill="#fdf6e3" stroke="#a07118" stroke-width="2"/>
  <path d="M 60 15 L 60 10 M 60 15 L 64 16.5" stroke="#4a3b2a" stroke-width="1.7" stroke-linecap="round"/>
  <!-- LOBİ tabelası -->
  <rect x="98" y="6" width="88" height="16" rx="4" fill="#14532d" stroke="#0d3a1e" stroke-width="1.8"/>
  <path d="M 100 8 h 84" stroke="#2d7a4f" stroke-width="1.2" opacity="0.6"/>
  <text x="142" y="18" font-family="Georgia, serif" font-size="11" fill="#f0c75e" text-anchor="middle" font-weight="bold">★ RESEPSİYON ★</text>
  <!-- resepsiyon bankosu -->
  <ellipse cx="64" cy="58" rx="34" ry="2.6" fill="#241608" opacity="0.15"/>
  <rect x="34" y="34" width="60" height="8" rx="2" fill="url(#lb_wood)" stroke="#55402e" stroke-width="2"/>
  <rect x="38" y="42" width="52" height="15" fill="url(#lb_wood)" stroke="#55402e" stroke-width="2"/>
  <path d="M 44 46 h 40 M 44 51 h 40" stroke="#54402a" stroke-width="1.4"/>
  <rect x="74" y="27" width="10" height="7" rx="1" fill="url(#lb_gold)" stroke="#a07118" stroke-width="1.4"/>
  <path d="M 46 30 a 5 5 0 0 1 10 0 z" fill="#f0c75e" stroke="#a07118" stroke-width="1.6"/>
  <!-- koltuk takımı + fanus -->
  <ellipse cx="123" cy="59" rx="10" ry="2" fill="#241608" opacity="0.15"/>
  <g>
    <path d="M 116 40 q 0 -8 7 -8 q 7 0 7 8 l 0 12 l -14 0 Z" fill="#379248" stroke="#1f6b2d" stroke-width="2"/>
    <rect x="114" y="46" width="18" height="8" rx="3" fill="#4db861" stroke="#1f6b2d" stroke-width="2"/>
    <path d="M 117 41 q 0 -5 4 -6" fill="none" stroke="#63cc78" stroke-width="1.4" opacity="0.8"/>
    <rect x="117" y="54" width="3.5" height="4" fill="#55402e"/>
    <rect x="125.5" y="54" width="3.5" height="4" fill="#55402e"/>
  </g>
  <ellipse cx="169" cy="59" rx="10" ry="2" fill="#241608" opacity="0.15"/>
  <g>
    <path d="M 162 40 q 0 -8 7 -8 q 7 0 7 8 l 0 12 l -14 0 Z" fill="#379248" stroke="#1f6b2d" stroke-width="2"/>
    <rect x="160" y="46" width="18" height="8" rx="3" fill="#4db861" stroke="#1f6b2d" stroke-width="2"/>
    <path d="M 163 41 q 0 -5 4 -6" fill="none" stroke="#63cc78" stroke-width="1.4" opacity="0.8"/>
    <rect x="163" y="54" width="3.5" height="4" fill="#55402e"/>
    <rect x="171.5" y="54" width="3.5" height="4" fill="#55402e"/>
  </g>
  <rect x="142" y="44" width="12" height="3" rx="1" fill="#a8845f" stroke="#55402e" stroke-width="1.4"/>
  <rect x="146" y="47" width="4" height="9" fill="url(#lb_wood)" stroke="#55402e" stroke-width="1.4"/>
  <circle cx="148" cy="36" r="8" fill="#bfe6f2" stroke="#6da4b8" stroke-width="1.8"/>
  <path d="M 142 33 a 8 8 0 0 1 6 -4" fill="none" stroke="#ffffff" stroke-width="1.6" opacity="0.8"/>
  <path d="M 145 37 c 2 -2.4 4.5 -2.4 6 0 c -1.5 2.4 -4 2.4 -6 0 Z" fill="#e8843c" stroke="#b35a1e" stroke-width="1"/>
  <path d="M 151 37 l 2.5 -1.8 l 0 3.6 Z" fill="#e8843c"/>
  <!-- halı -->
  <ellipse cx="146" cy="60" rx="46" ry="3.4" fill="#a83e35" opacity="0.85"/>
  <ellipse cx="146" cy="60" rx="34" ry="2.3" fill="#c0504a" opacity="0.9"/>
  <ellipse cx="146" cy="59.3" rx="20" ry="1.2" fill="#e5847c" opacity="0.6"/>
  <!-- Not: asansör (pediment + kapı) burada ARTIK çizilmiyor — main.gd'de
       ayrı, animasyonlu bir katman olarak (elevator_tex, kapalı/aralık/açık
       3 kare) bindiriliyor; ikisi aynı anda çizilirse iki asansör görünürdü. -->
  <!-- bagaj arabası -->
  <ellipse cx="345" cy="34" rx="16" ry="2.4" fill="#241608" opacity="0.15"/>
  <rect x="330" y="24" width="30" height="4" rx="2" fill="url(#lb_gold)" stroke="#8a6f28" stroke-width="1.6"/>
  <path d="M 332 24 v -14 M 358 24 v -14 M 332 10 h 26" fill="none" stroke="#caa84e" stroke-width="3" stroke-linecap="round"/>
  <circle cx="337" cy="31" r="3.4" fill="#3a2a1c" stroke="#241608" stroke-width="1.2"/>
  <circle cx="353" cy="31" r="3.4" fill="#3a2a1c" stroke="#241608" stroke-width="1.2"/>
  <rect x="335" y="14" width="14" height="10" rx="1.5" fill="#8d3a3a" stroke="#5e2424" stroke-width="1.6"/>
  <rect x="341" y="8" width="12" height="8" rx="1.5" fill="#4a6a8a" stroke="#2e4257" stroke-width="1.6"/>
  <path d="M 336 15 l 10 0" stroke="#a85a5a" stroke-width="1" opacity="0.7"/>
  <!-- posta kutuları -->
  <ellipse cx="406" cy="35" rx="30" ry="2" fill="#241608" opacity="0.12"/>
  <rect x="376" y="8" width="60" height="26" rx="2" fill="url(#lb_wood)" stroke="#55402e" stroke-width="2"/>
  <g fill="#d9b25e" stroke="#a07118" stroke-width="1">
    <rect x="380" y="12" width="10" height="7" rx="1"/><rect x="393" y="12" width="10" height="7" rx="1"/><rect x="406" y="12" width="10" height="7" rx="1"/><rect x="419" y="12" width="10" height="7" rx="1"/>
    <rect x="380" y="23" width="10" height="7" rx="1"/><rect x="393" y="23" width="10" height="7" rx="1"/><rect x="406" y="23" width="10" height="7" rx="1"/><rect x="419" y="23" width="10" height="7" rx="1"/>
  </g>
  <!-- çiçek vazosu -->
  <ellipse cx="446" cy="57" rx="8" ry="1.8" fill="#241608" opacity="0.15"/>
  <path d="M 442 46 q -1 8 3 10 l 2 0 q 4 -2 3 -10 Z" fill="url(#lb_gold)" stroke="#8a6f28" stroke-width="1.6"/>
  <circle cx="442" cy="42" r="3" fill="#e05a4e" stroke="#a83e35" stroke-width="1.2"/>
  <circle cx="447" cy="39" r="3" fill="#e05a4e" stroke="#a83e35" stroke-width="1.2"/>
  <circle cx="451" cy="43" r="3" fill="#e05a4e" stroke="#a83e35" stroke-width="1.2"/>
  <path d="M 444 45 q 2 -3 3 -5 M 449 45 q 0 -2 -1 -3" stroke="#2f7a56" stroke-width="1.4" fill="none"/>
</svg>
