<svg xmlns="http://www.w3.org/2000/svg" width="64" height="48" viewBox="0 0 64 48">
  <!-- sevimli hamamböceği: yuvarlak gövde, kocaman gözler, kalın kontur -->
  <ellipse cx="32" cy="41" rx="15" ry="2.4" fill="#241608" opacity="0.15"/>
  <!-- bacaklar -->
  <path d="M 18 34 l -6 5 M 24 37 l -3 6 M 32 38 l 2 6 M 17 26 l -8 -2 M 18 30 l -8 2" fill="none" stroke="#2e1c0c" stroke-width="2" stroke-linecap="round"/>
  <!-- gövde -->
  <ellipse cx="27" cy="29" rx="15" ry="10.5" fill="#8a5a30" stroke="#2e1c0c" stroke-width="2.4"/>
  <path d="M 14 26 Q 27 20 40 26" fill="none" stroke="#2e1c0c" stroke-width="1.6" opacity="0.5"/>
  <ellipse cx="24" cy="24.5" rx="7" ry="3.4" fill="#b07c46" opacity="0.8"/>
  <!-- kafa -->
  <circle cx="44" cy="26" r="8" fill="#6e4322" stroke="#2e1c0c" stroke-width="2.4"/>
  <!-- gözler -->
  <circle cx="42.6" cy="24" r="3" fill="#ffffff" stroke="#2e1c0c" stroke-width="1.3"/>
  <circle cx="43.4" cy="24.5" r="1.4" fill="#2e1c0c"/>
  <circle cx="48.6" cy="24" r="3" fill="#ffffff" stroke="#2e1c0c" stroke-width="1.3"/>
  <circle cx="49.2" cy="24.5" r="1.4" fill="#2e1c0c"/>
  <path d="M 44.5 29.5 Q 46 31 47.5 29.5" fill="none" stroke="#2e1c0c" stroke-width="1.4" stroke-linecap="round"/>
  <circle cx="40" cy="28.5" r="1.3" fill="#f0879a" opacity="0.6"/>
  <circle cx="51" cy="28.5" r="1.3" fill="#f0879a" opacity="0.6"/>
  <!-- antenler -->
  <path d="M 47 18.5 q 3 -7 8 -8 M 50 20 q 5 -4 10 -3" fill="none" stroke="#2e1c0c" stroke-width="1.8" stroke-linecap="round"/>
  <circle cx="55.5" cy="10.2" r="1.7" fill="#2e1c0c"/>
  <circle cx="60.2" cy="16.8" r="1.7" fill="#2e1c0c"/>
</svg>
