<svg xmlns="http://www.w3.org/2000/svg" width="720" height="160" viewBox="0 0 720 160">
  <defs>
    <linearGradient id="sky_far" x1="0" y1="0" x2="0" y2="1">
      <stop offset="0%" stop-color="#bcdcf0"/>
      <stop offset="100%" stop-color="#96c2dd"/>
    </linearGradient>
    <linearGradient id="sky_near" x1="0" y1="0" x2="0" y2="1">
      <stop offset="0%" stop-color="#d8ecf6"/>
      <stop offset="100%" stop-color="#aed4ea"/>
    </linearGradient>
  </defs>
  <g fill="url(#sky_far)">
    <rect x="0" y="70" width="60" height="90"/>
    <rect x="70" y="40" width="45" height="120"/>
    <rect x="125" y="90" width="70" height="70"/>
    <rect x="205" y="55" width="40" height="105"/>
    <rect x="255" y="80" width="65" height="80"/>
    <rect x="330" y="30" width="50" height="130"/>
    <rect x="390" y="75" width="55" height="85"/>
    <rect x="455" y="50" width="42" height="110"/>
    <rect x="507" y="95" width="68" height="65"/>
    <rect x="585" y="60" width="48" height="100"/>
    <rect x="643" y="85" width="77" height="75"/>
    <rect x="345" y="14" width="8" height="20"/>
    <rect x="82" y="26" width="8" height="18"/>
    <rect x="204" y="44" width="6" height="14"/>
    <rect x="588" y="48" width="6" height="15"/>
  </g>
  <g fill="#8fb9d6" opacity="0.55">
    <rect x="70" y="40" width="45" height="6"/>
    <rect x="330" y="30" width="50" height="6"/>
    <rect x="455" y="50" width="42" height="6"/>
    <rect x="205" y="55" width="40" height="6"/>
    <rect x="585" y="60" width="48" height="6"/>
  </g>
  <g fill="#fdeaa8" opacity="0.75">
    <rect x="8" y="82" width="5" height="7"/><rect x="20" y="82" width="5" height="7"/><rect x="32" y="82" width="5" height="7"/>
    <rect x="8" y="98" width="5" height="7"/><rect x="32" y="98" width="5" height="7"/>
    <rect x="78" y="52" width="5" height="7"/><rect x="90" y="52" width="5" height="7"/><rect x="102" y="52" width="5" height="7"/>
    <rect x="78" y="68" width="5" height="7"/><rect x="102" y="68" width="5" height="7"/>
    <rect x="338" y="42" width="5" height="7"/><rect x="358" y="42" width="5" height="7"/><rect x="370" y="42" width="5" height="7"/>
    <rect x="338" y="60" width="5" height="7"/><rect x="370" y="60" width="5" height="7"/>
    <rect x="463" y="62" width="5" height="7"/><rect x="480" y="62" width="5" height="7"/>
    <rect x="592" y="72" width="5" height="7"/><rect x="610" y="72" width="5" height="7"/><rect x="620" y="72" width="5" height="7"/>
    <rect x="650" y="97" width="5" height="7"/><rect x="668" y="97" width="5" height="7"/><rect x="686" y="97" width="5" height="7"/><rect x="700" y="97" width="5" height="7"/>
  </g>
  <g fill="url(#sky_near)">
    <rect x="30" y="100" width="55" height="60"/>
    <rect x="150" y="115" width="50" height="45"/>
    <rect x="290" y="105" width="58" height="55"/>
    <rect x="430" y="110" width="60" height="50"/>
    <rect x="560" y="118" width="55" height="42"/>
    <rect x="665" y="112" width="55" height="48"/>
  </g>
  <g fill="#fdeaa8" opacity="0.6">
    <rect x="40" y="112" width="6" height="8"/><rect x="55" y="112" width="6" height="8"/><rect x="70" y="112" width="6" height="8"/>
    <rect x="40" y="130" width="6" height="8"/><rect x="70" y="130" width="6" height="8"/>
    <rect x="160" y="126" width="6" height="8"/><rect x="178" y="126" width="6" height="8"/>
    <rect x="300" y="118" width="6" height="8"/><rect x="318" y="118" width="6" height="8"/><rect x="334" y="118" width="6" height="8"/>
    <rect x="440" y="122" width="6" height="8"/><rect x="460" y="122" width="6" height="8"/>
    <rect x="570" y="130" width="6" height="8"/><rect x="590" y="130" width="6" height="8"/>
    <rect x="676" y="124" width="6" height="8"/><rect x="694" y="124" width="6" height="8"/><rect x="708" y="124" width="6" height="8"/>
  </g>
</svg>
