<svg xmlns="http://www.w3.org/2000/svg" width="32" height="32" viewBox="0 0 32 32">
  <!-- şeker parıltı: altın dört uçlu yıldız + minik yıldızlar -->
  <path d="M 16 2 C 17 10 19 13 27 14 C 19 15 17 18 16 26 C 15 18 13 15 5 14 C 13 13 15 10 16 2 Z" fill="#ffd878" stroke="#f6b83c" stroke-width="1.6" stroke-linejoin="round"/>
  <path d="M 16 8 C 16.5 12 18 13.5 22 14 C 18 14.5 16.5 16 16 20 C 15.5 16 14 14.5 10 14 C 14 13.5 15.5 12 16 8 Z" fill="#fff3cf"/>
  <circle cx="25" cy="24" r="2.4" fill="#ffd878" stroke="#f6b83c" stroke-width="1.2"/>
  <circle cx="7" cy="25" r="1.7" fill="#ffd878" stroke="#f6b83c" stroke-width="1"/>
</svg>
