<svg xmlns="http://www.w3.org/2000/svg" width="48" height="64" viewBox="0 0 48 64">
  <!-- komi: kırmızı üniforma, altın düğmeler, pillbox şapka, iki bavul (tam boy) -->
  <defs>
    <radialGradient id="bb_skin" cx="42%" cy="35%" r="70%">
      <stop offset="0%" stop-color="#fce3c2"/>
      <stop offset="100%" stop-color="#f2c9a0"/>
    </radialGradient>
    <linearGradient id="bb_uniform" x1="0" y1="0" x2="0" y2="1">
      <stop offset="0%" stop-color="#e0564a"/>
      <stop offset="100%" stop-color="#a83226"/>
    </linearGradient>
    <linearGradient id="bb_hair" x1="0" y1="0" x2="0" y2="1">
      <stop offset="0%" stop-color="#4a2f1c"/>
      <stop offset="100%" stop-color="#2c1a0e"/>
    </linearGradient>
    <linearGradient id="bb_case" x1="0" y1="0" x2="0" y2="1">
      <stop offset="0%" stop-color="#a8683e"/>
      <stop offset="100%" stop-color="#7a4a28"/>
    </linearGradient>
  </defs>
  <ellipse cx="24" cy="62" rx="15" ry="2.2" fill="#241608" opacity="0.2"/>
  <!-- bavullar -->
  <rect x="1" y="47" width="11" height="9" rx="1.5" fill="url(#bb_case)" stroke="#2d2416" stroke-width="1.8"/>
  <rect x="3" y="50" width="7" height="2" fill="#f0c75e"/>
  <rect x="36" y="47" width="11" height="9" rx="1.5" fill="url(#bb_case)" stroke="#2d2416" stroke-width="1.8"/>
  <rect x="38" y="50" width="7" height="2" fill="#f0c75e"/>
  <!-- kollar -->
  <path d="M 15 41 q -6 3 -8 8" fill="none" stroke="url(#bb_uniform)" stroke-width="5.4" stroke-linecap="round"/>
  <path d="M 33 41 q 6 3 8 8" fill="none" stroke="url(#bb_uniform)" stroke-width="5.4" stroke-linecap="round"/>
  <path d="M 15 41 q -6 3 -8 8" fill="none" stroke="#2d2416" stroke-width="2" stroke-linecap="round"/>
  <path d="M 33 41 q 6 3 8 8" fill="none" stroke="#2d2416" stroke-width="2" stroke-linecap="round"/>
  <!-- ayakkabılar -->
  <path d="M 14 57 h 8 v 5 q 0 2 -2 2 h -6 z" fill="#18181a" stroke="#000000" stroke-width="1.8"/>
  <path d="M 26 57 h 8 v 5 q 0 2 -2 2 h -6 z" fill="#18181a" stroke="#000000" stroke-width="1.8"/>
  <!-- pantolon -->
  <rect x="16.5" y="49" width="6" height="11" rx="2" fill="#2d2416" stroke="#141210" stroke-width="2"/>
  <rect x="25.5" y="49" width="6" height="11" rx="2" fill="#2d2416" stroke="#141210" stroke-width="2"/>
  <!-- ceket -->
  <path d="M 15 39 L 33 39 L 34.5 57 Q 24 60 13.5 57 Z" fill="url(#bb_uniform)" stroke="#7a2018" stroke-width="2.2" stroke-linejoin="round"/>
  <path d="M 24 39 L 24 57" stroke="#7a2018" stroke-width="1.4"/>
  <circle cx="20" cy="45" r="1.7" fill="#f0c75e" stroke="#a07118" stroke-width="0.9"/>
  <circle cx="28" cy="45" r="1.7" fill="#f0c75e" stroke="#a07118" stroke-width="0.9"/>
  <circle cx="20" cy="51" r="1.7" fill="#f0c75e" stroke="#a07118" stroke-width="0.9"/>
  <circle cx="28" cy="51" r="1.7" fill="#f0c75e" stroke="#a07118" stroke-width="0.9"/>
  <!-- baş -->
  <circle cx="24" cy="25" r="15.5" fill="url(#bb_skin)" stroke="#2d2416" stroke-width="2.3"/>
  <path d="M 8.5 21 C 8.5 12 15 8 24 8 C 33 8 39.5 12 39.5 21 C 36 15 30 13.5 24 13.5 C 18 13.5 12 15 8.5 21 Z" fill="url(#bb_hair)" stroke="#1a0f08" stroke-width="2.1" stroke-linejoin="round"/>
  <rect x="11.5" y="-0.5" width="25" height="10.5" rx="3.5" fill="url(#bb_uniform)" stroke="#7a2018" stroke-width="2.2"/>
  <rect x="11.5" y="7" width="25" height="3.6" fill="#f0c75e" stroke="#a07118" stroke-width="1"/>
  <path d="M 24 1.6 L 25 3.9 L 27.4 3.9 L 25.5 5.4 L 26.2 7.6 L 24 6.2 L 21.8 7.6 L 22.5 5.4 L 20.6 3.9 L 23 3.9 Z" fill="#f0c75e"/>
  <circle cx="18" cy="26" r="3.6" fill="#ffffff" stroke="#2d2416" stroke-width="1.4"/>
  <circle cx="18.9" cy="26.7" r="1.8" fill="#2e1c0c"/>
  <circle cx="30" cy="26" r="3.6" fill="#ffffff" stroke="#2d2416" stroke-width="1.4"/>
  <circle cx="30.9" cy="26.7" r="1.8" fill="#2e1c0c"/>
  <path d="M 14.5 21.5 Q 18 20 21 21.4 M 27 21.4 Q 30 20 33.5 21.5" fill="none" stroke="#2d2416" stroke-width="1.6" stroke-linecap="round"/>
  <path d="M 20 34.5 Q 24 38 28 34.5" fill="none" stroke="#2d2416" stroke-width="1.8" stroke-linecap="round"/>
  <circle cx="14" cy="31.5" r="2" fill="#f0879a" opacity="0.6"/>
  <circle cx="34" cy="31.5" r="2" fill="#f0879a" opacity="0.6"/>
</svg>
