<svg xmlns="http://www.w3.org/2000/svg" width="48" height="64" viewBox="0 0 48 64">
  <!-- komi: kırmızı üniforma, altın düğmeler, yıldızlı pillbox şapka -->
  <rect x="16.5" y="53" width="5.5" height="9" rx="2.5" fill="#2e2e33" stroke="#1d1d21" stroke-width="1.6"/>
  <rect x="26" y="53" width="5.5" height="9" rx="2.5" fill="#2e2e33" stroke="#1d1d21" stroke-width="1.6"/>
  <path d="M 15.5 40 L 32.5 40 L 33.5 56 L 14.5 56 Z" fill="#c0392b" stroke="#7a2018" stroke-width="2" stroke-linejoin="round"/>
  <circle cx="20" cy="45" r="1.6" fill="#f0c75e" stroke="#a07118" stroke-width="0.8"/>
  <circle cx="28" cy="45" r="1.6" fill="#f0c75e" stroke="#a07118" stroke-width="0.8"/>
  <circle cx="20" cy="50.5" r="1.6" fill="#f0c75e" stroke="#a07118" stroke-width="0.8"/>
  <circle cx="28" cy="50.5" r="1.6" fill="#f0c75e" stroke="#a07118" stroke-width="0.8"/>
  <path d="M 15.5 41 L 12 47 L 14 48.5" fill="none" stroke="#7a2018" stroke-width="2" stroke-linecap="round"/>
  <path d="M 32.5 41 L 36 47 L 34 48.5" fill="none" stroke="#7a2018" stroke-width="2" stroke-linecap="round"/>
  <circle cx="12.5" cy="49" r="2.6" fill="#ffffff" stroke="#3a2a1c" stroke-width="1.4"/>
  <circle cx="35.5" cy="49" r="2.6" fill="#ffffff" stroke="#3a2a1c" stroke-width="1.4"/>
  <circle cx="24" cy="26" r="15.5" fill="#f2c9a0" stroke="#3a2a1c" stroke-width="2"/>
  <path d="M 9 22 C 9 14 15 10 24 10 C 33 10 39 14 39 22 C 36 17 30 15.5 24 15.5 C 18 15.5 12 17 9 22 Z" fill="#3a2415" stroke="#241608" stroke-width="1.8" stroke-linejoin="round"/>
  <rect x="12" y="1" width="24" height="10" rx="3" fill="#c0392b" stroke="#7a2018" stroke-width="2"/>
  <rect x="12" y="8" width="24" height="3.4" fill="#f0c75e" stroke="#a07118" stroke-width="1"/>
  <path d="M 24 2.8 L 24.9 4.9 L 27.2 4.9 L 25.4 6.3 L 26.1 8.4 L 24 7.1 L 21.9 8.4 L 22.6 6.3 L 20.8 4.9 L 23.1 4.9 Z" fill="#f0c75e"/>
  <circle cx="18" cy="27" r="3.4" fill="#ffffff"/>
  <circle cx="18.8" cy="27.7" r="1.7" fill="#2e1c0c"/>
  <circle cx="30" cy="27" r="3.4" fill="#ffffff"/>
  <circle cx="30.8" cy="27.7" r="1.7" fill="#2e1c0c"/>
  <path d="M 14.8 22.8 Q 18 21.4 20.8 22.6 M 27.2 22.6 Q 30 21.4 33.2 22.8" fill="none" stroke="#3a2a1c" stroke-width="1.4" stroke-linecap="round"/>
  <path d="M 20 34 Q 24 37.4 28 34" fill="none" stroke="#3a2a1c" stroke-width="1.7" stroke-linecap="round"/>
  <circle cx="14" cy="31.5" r="1.9" fill="#f0a08a" opacity="0.6"/>
  <circle cx="34" cy="31.5" r="1.9" fill="#f0a08a" opacity="0.6"/>
</svg>
