<svg xmlns="http://www.w3.org/2000/svg" width="48" height="64" viewBox="0 0 48 64">
  <!-- chibi beyefendi: silindir şapka, yuvarlak gözlük, kravat (Hotel City dansçısı) -->
  <rect x="16.5" y="53" width="5.5" height="9" rx="2.5" fill="#2e2e33" stroke="#1d1d21" stroke-width="1.6"/>
  <rect x="26" y="53" width="5.5" height="9" rx="2.5" fill="#2e2e33" stroke="#1d1d21" stroke-width="1.6"/>
  <path d="M 16.5 40 L 31.5 40 L 33 56 L 15 56 Z" fill="#f5efdc" stroke="#3a2a1c" stroke-width="2" stroke-linejoin="round"/>
  <path d="M 24 40 L 22.5 46 L 24 52 L 25.5 46 Z" fill="#8db4d9" stroke="#3a2a1c" stroke-width="1.3"/>
  <circle cx="24" cy="26" r="15.5" fill="#f2c9a0" stroke="#3a2a1c" stroke-width="2"/>
  <path d="M 8 19 C 10 13 38 13 40 19 L 40 21.5 L 8 21.5 Z" fill="#26262a" stroke="#1a1a1d" stroke-width="1.8"/>
  <rect x="13" y="1.5" width="22" height="18" rx="2" fill="#26262a" stroke="#1a1a1d" stroke-width="1.8"/>
  <rect x="13" y="12.5" width="22" height="4" fill="#8d3a3a"/>
  <path d="M 16 4.5 C 15 8 14.5 12 14.5 15" fill="none" stroke="#4d4d57" stroke-width="1.4" opacity="0.8"/>
  <circle cx="18" cy="27" r="4.4" fill="#ffffff" stroke="#3a2a1c" stroke-width="1.6"/>
  <circle cx="30" cy="27" r="4.4" fill="#ffffff" stroke="#3a2a1c" stroke-width="1.6"/>
  <path d="M 22.4 27 h 3.2 M 13.6 26 l -2.6 -1" fill="none" stroke="#3a2a1c" stroke-width="1.6"/>
  <circle cx="19" cy="27.6" r="1.7" fill="#2e1c0c"/>
  <circle cx="31" cy="27.6" r="1.7" fill="#2e1c0c"/>
  <path d="M 19 36 q 5 3.4 10 -0.6" fill="none" stroke="#3a2a1c" stroke-width="1.7" stroke-linecap="round"/>
  <path d="M 18 33 q 2 0.8 3.6 0.5" fill="none" stroke="#c9c2b4" stroke-width="1.2" opacity="0.8"/>
</svg>
