<svg xmlns="http://www.w3.org/2000/svg" width="48" height="64" viewBox="0 0 48 64">
  <rect x="14" y="36" width="20" height="20" rx="6" fill="#3d3a55" stroke="#282640" stroke-width="2.5"/>
  <rect x="21" y="36" width="6" height="12" fill="#fdfaf2"/>
  <rect x="22" y="40" width="4" height="5" fill="#c4574e"/>
  <rect x="16" y="54" width="7" height="8" rx="3" fill="#2e2b28"/>
  <rect x="25" y="54" width="7" height="8" rx="3" fill="#2e2b28"/>
  <circle cx="24" cy="22" r="17" fill="#c98d5f" stroke="#8f6039" stroke-width="2.5"/>
  <path d="M 8 20 A 17 17 0 0 1 40 20 L 40 16 A 17 17 0 0 0 8 16 Z" fill="#2e2b28"/>
  <circle cx="18" cy="24" r="2.5" fill="#2e2b28"/>
  <circle cx="30" cy="24" r="2.5" fill="#2e2b28"/>
  <path d="M 15 20 L 21 20 M 27 20 L 33 20" stroke="#2e2b28" stroke-width="2" stroke-linecap="round"/>
  <path d="M 20 31 Q 24 33 28 31" fill="none" stroke="#8a4527" stroke-width="2" stroke-linecap="round"/>
</svg>
