<svg xmlns="http://www.w3.org/2000/svg" width="48" height="64" viewBox="0 0 48 64">
  <!-- chibi kadın: koyu kızıl küt saç, camgöbeği elbise (Hotel City stili) -->
  <rect x="16.5" y="53" width="5.5" height="9" rx="2.5" fill="#e8b48d" stroke="#3a2a1c" stroke-width="1.6"/>
  <rect x="26" y="53" width="5.5" height="9" rx="2.5" fill="#e8b48d" stroke="#3a2a1c" stroke-width="1.6"/>
  <path d="M 16 40 L 32 40 L 35.5 57 L 12.5 57 Z" fill="#1f8a8c" stroke="#3a2a1c" stroke-width="2" stroke-linejoin="round"/>
  <path d="M 17 44 L 14.5 51 M 31 44 L 33.5 51" fill="none" stroke="#166b6d" stroke-width="1.4"/>
  <circle cx="24" cy="24" r="16.5" fill="#f2c9a0" stroke="#3a2a1c" stroke-width="2"/>
  <path d="M 7.5 24 C 4.5 5 43.5 5 40.5 24 C 40.5 31 38 36 35 37 C 38 28 36 16 24 16 C 12 16 10 28 13 37 C 10 36 7.5 31 7.5 24 Z" fill="#7a2f22" stroke="#3a2a1c" stroke-width="2" stroke-linejoin="round"/>
  <path d="M 13 11 C 17 7 23 6 27 7" fill="none" stroke="#a24a37" stroke-width="2" stroke-linecap="round"/>
  <circle cx="18" cy="26" r="3.6" fill="#ffffff"/>
  <circle cx="18.9" cy="26.7" r="1.8" fill="#2e1c0c"/>
  <circle cx="18.2" cy="25.8" r="0.7" fill="#ffffff"/>
  <circle cx="30" cy="26" r="3.6" fill="#ffffff"/>
  <circle cx="30.9" cy="26.7" r="1.8" fill="#2e1c0c"/>
  <circle cx="30.2" cy="25.8" r="0.7" fill="#ffffff"/>
  <path d="M 14.5 21.5 Q 18 19.8 21 21.2 M 27 21.2 Q 30 19.8 33.5 21.5" fill="none" stroke="#3a2a1c" stroke-width="1.4" stroke-linecap="round"/>
  <circle cx="13.5" cy="31" r="2" fill="#f0a08a" opacity="0.65"/>
  <circle cx="34.5" cy="31" r="2" fill="#f0a08a" opacity="0.65"/>
  <path d="M 21 34 Q 24 36.6 27 34" fill="none" stroke="#3a2a1c" stroke-width="1.7" stroke-linecap="round"/>
</svg>
