<svg xmlns="http://www.w3.org/2000/svg" width="64" height="64" viewBox="0 0 64 64">
  <!-- hizmetçi: siyah elbise, beyaz önlük, tüy toz alıcı (tam boy, kalın çizgi) -->
  <defs>
    <radialGradient id="md_skin" cx="42%" cy="35%" r="70%">
      <stop offset="0%" stop-color="#fce3c2"/>
      <stop offset="100%" stop-color="#f2c9a0"/>
    </radialGradient>
    <linearGradient id="md_dress" x1="0" y1="0" x2="0" y2="1">
      <stop offset="0%" stop-color="#4a4a52"/>
      <stop offset="100%" stop-color="#1c1c1e"/>
    </linearGradient>
    <linearGradient id="md_hair" x1="0" y1="0" x2="0" y2="1">
      <stop offset="0%" stop-color="#8a4c3a"/>
      <stop offset="100%" stop-color="#5a281f"/>
    </linearGradient>
  </defs>
  <ellipse cx="17" cy="62" rx="14" ry="2.2" fill="#241608" opacity="0.2"/>
  <!-- toz alıcı (sağ el) -->
  <g stroke="#2d2416" stroke-width="1.6" stroke-linecap="round">
    <path d="M 34 41 L 45 30" stroke="#3a3a40" stroke-width="4"/>
  </g>
  <circle cx="46" cy="29" r="2.6" fill="#f2c9a0" stroke="#2d2416" stroke-width="1.6"/>
  <path d="M 45 24 q 6 -3 10 1 q -4 3 -10 3 Z" fill="#e8607f" stroke="#2d2416" stroke-width="1.4"/>
  <path d="M 48 22 q 5 -3 8 0 M 47 27 q 6 -1 9 2" stroke="#f5a9bb" stroke-width="1.1" opacity="0.7" fill="none"/>
  <!-- sol kol -->
  <path d="M 12 41 q -5 3 -6 10 l 0 4" fill="none" stroke="url(#md_dress)" stroke-width="5" stroke-linecap="round"/>
  <path d="M 12 41 q -5 3 -6 10 l 0 4" fill="none" stroke="#141416" stroke-width="1.8" stroke-linecap="round"/>
  <circle cx="6" cy="55" r="2.8" fill="#f2c9a0" stroke="#2d2416" stroke-width="1.6"/>
  <!-- ayakkabılar -->
  <path d="M 8 56 h 7 v 5 q 0 2 -2 2 h -5 z" fill="#18181a" stroke="#000000" stroke-width="1.7"/>
  <path d="M 19 56 h 7 v 5 q 0 2 -2 2 h -5 z" fill="#18181a" stroke="#000000" stroke-width="1.7"/>
  <!-- bacaklar -->
  <rect x="9.5" y="49" width="5.5" height="10" rx="2.2" fill="#f2c9a0" stroke="#2d2416" stroke-width="1.8"/>
  <rect x="19" y="49" width="5.5" height="10" rx="2.2" fill="#f2c9a0" stroke="#2d2416" stroke-width="1.8"/>
  <!-- elbise + önlük -->
  <path d="M 8.5 39 L 25.5 39 L 28.5 56 Q 17 59 5.5 56 Z" fill="url(#md_dress)" stroke="#000000" stroke-width="2.2" stroke-linejoin="round"/>
  <path d="M 11 42 L 22 42 L 24 55 L 9 55 Z" fill="#fdf6e3" stroke="#c9c2b4" stroke-width="1.6"/>
  <path d="M 9 41 L 6 44 M 24 41 L 27 44" fill="none" stroke="#000000" stroke-width="1.3" opacity="0.7"/>
  <!-- baş -->
  <circle cx="17" cy="23" r="16" fill="url(#md_skin)" stroke="#2d2416" stroke-width="2.3"/>
  <path d="M 0.5 23 C -3 3 37 3 33.5 23 C 33.5 30 31 34 27 35 C 30 27 28 15 17 15 C 6 15 4 27 7 35 C 3 34 0.5 30 0.5 23 Z" fill="url(#md_hair)" stroke="#3a1c14" stroke-width="2.2" stroke-linejoin="round"/>
  <path d="M 7 8 C 9 5 13 3.5 17 3.5 C 21 3.5 25 5 27 8" fill="none" stroke="#fdf6e3" stroke-width="4.2" stroke-linecap="round"/>
  <circle cx="7" cy="7" r="2.4" fill="#fdf6e3" stroke="#e0dcc8" stroke-width="0.8"/>
  <circle cx="12.5" cy="4.5" r="2.4" fill="#fdf6e3" stroke="#e0dcc8" stroke-width="0.8"/>
  <circle cx="21.5" cy="4.5" r="2.4" fill="#fdf6e3" stroke="#e0dcc8" stroke-width="0.8"/>
  <circle cx="27" cy="7" r="2.4" fill="#fdf6e3" stroke="#e0dcc8" stroke-width="0.8"/>
  <circle cx="11" cy="25" r="3.6" fill="#ffffff" stroke="#2d2416" stroke-width="1.4"/>
  <circle cx="11.8" cy="25.7" r="1.8" fill="#2e1c0c"/>
  <circle cx="23" cy="25" r="3.6" fill="#ffffff" stroke="#2d2416" stroke-width="1.4"/>
  <circle cx="23.8" cy="25.7" r="1.8" fill="#2e1c0c"/>
  <path d="M 7 20 Q 10.5 18.4 14 20 M 20 20 Q 23.5 18.4 27 20" fill="none" stroke="#2d2416" stroke-width="1.6" stroke-linecap="round"/>
  <path d="M 13.5 32.5 Q 17 35.4 20.5 32.5" fill="none" stroke="#2d2416" stroke-width="1.8" stroke-linecap="round"/>
  <circle cx="6" cy="29.5" r="2.1" fill="#f0879a" opacity="0.6"/>
  <circle cx="28" cy="29.5" r="2.1" fill="#f0879a" opacity="0.6"/>
</svg>
