<svg xmlns="http://www.w3.org/2000/svg" width="64" height="64" viewBox="0 0 64 64">
  <!-- hizmetçi: siyah elbise, beyaz önlük, elektrik süpürgesi + toz bulutu -->
  <ellipse cx="52" cy="58" rx="7" ry="4" fill="#c9c2b4" opacity="0.75"/>
  <circle cx="57" cy="53" r="2.6" fill="#c9c2b4" opacity="0.75"/>
  <circle cx="48" cy="52.5" r="2" fill="#c9c2b4" opacity="0.6"/>
  <rect x="43" y="55" width="12" height="5" rx="2" fill="#1f6b6d" stroke="#134a4c" stroke-width="1.6"/>
  <path d="M 34 30 L 46 55" fill="none" stroke="#8d8d99" stroke-width="3" stroke-linecap="round"/>
  <path d="M 44 48 C 40 50 40 55 44 56" fill="#a8845f" stroke="#55402e" stroke-width="1.6"/>
  <rect x="9.5" y="53" width="5.5" height="9" rx="2.5" fill="#e8b48d" stroke="#3a2a1c" stroke-width="1.6"/>
  <rect x="19" y="53" width="5.5" height="9" rx="2.5" fill="#e8b48d" stroke="#3a2a1c" stroke-width="1.6"/>
  <path d="M 9 40 L 25 40 L 28.5 57 L 5.5 57 Z" fill="#26262a" stroke="#141416" stroke-width="2" stroke-linejoin="round"/>
  <path d="M 12 43 L 22 43 L 24 55 L 10 55 Z" fill="#fdf6e3" stroke="#c9c2b4" stroke-width="1.4"/>
  <path d="M 25 41 L 33 32" fill="none" stroke="#26262a" stroke-width="4" stroke-linecap="round"/>
  <circle cx="34" cy="31" r="2.8" fill="#e8b48d" stroke="#3a2a1c" stroke-width="1.4"/>
  <circle cx="17" cy="24" r="16" fill="#f2c9a0" stroke="#3a2a1c" stroke-width="2"/>
  <path d="M 1 24 C -2 6 36 6 33 24 C 33 31 31 35 28 36 C 31 28 29 16 17 16 C 5 16 3 28 6 36 C 3 35 1 31 1 24 Z" fill="#5a2a20" stroke="#3a1c14" stroke-width="2" stroke-linejoin="round"/>
  <path d="M 8 9 C 10 6 14 4.5 17 4.5 C 20 4.5 24 6 26 9" fill="none" stroke="#fdf6e3" stroke-width="4" stroke-linecap="round"/>
  <circle cx="8" cy="8" r="2.2" fill="#fdf6e3"/>
  <circle cx="13" cy="5.5" r="2.2" fill="#fdf6e3"/>
  <circle cx="21" cy="5.5" r="2.2" fill="#fdf6e3"/>
  <circle cx="26" cy="8" r="2.2" fill="#fdf6e3"/>
  <circle cx="11" cy="26" r="3.4" fill="#ffffff"/>
  <circle cx="11.8" cy="26.7" r="1.7" fill="#2e1c0c"/>
  <circle cx="23" cy="26" r="3.4" fill="#ffffff"/>
  <circle cx="23.8" cy="26.7" r="1.7" fill="#2e1c0c"/>
  <path d="M 8 21.5 Q 11 20 14 21.3 M 20 21.3 Q 23 20 26 21.5" fill="none" stroke="#3a2a1c" stroke-width="1.4" stroke-linecap="round"/>
  <path d="M 14 33.5 Q 17 36 20 33.5" fill="none" stroke="#3a2a1c" stroke-width="1.7" stroke-linecap="round"/>
  <circle cx="7" cy="30.5" r="1.9" fill="#f0a08a" opacity="0.6"/>
  <circle cx="27" cy="30.5" r="1.9" fill="#f0a08a" opacity="0.6"/>
</svg>
